<svg width="150" height="300" viewBox="0 0 150 300" fill="none" xmlns="http://www.w3.org/2000/svg">
<path fill-rule="evenodd" clip-rule="evenodd" d="M297 150C297 231.186 231.186 297 150 297C138.907 297 128.101 295.771 117.71 293.442L116.206 296.178C127.067 298.679 138.379 300 150 300C232.843 300 300 232.843 300 150C300 67.1573 232.843 0 150 0C104.183 0 63.1633 20.542 35.6493 52.9185L38.1214 54.6427C65.0839 23.0392 105.202 3 150 3C231.186 3 297 68.8141 297 150ZM62.6236 271.938L64.0801 269.289C43.8909 254.722 27.5479 235.156 16.8651 212.405L14.0886 213.552C25.0405 236.933 41.8482 257.024 62.6236 271.938ZM0 150C0 128.476 4.53338 108.011 12.6974 89.5078L15.2065 91.2577C7.35503 109.249 3 129.116 3 150C3 163.83 4.90977 177.213 8.47998 189.902L5.68765 191.055C1.98293 178.007 0 164.235 0 150Z" fill="#FDFAD7"/>
<path fill-rule="evenodd" clip-rule="evenodd" d="M276.995 156.009C280.241 85.9442 226.074 26.5137 156.009 23.2675C146.476 22.8258 137.139 23.447 128.114 25.0266L126.738 22.2242C136.241 20.4948 146.088 19.8046 156.148 20.2707C227.868 23.5936 283.315 84.428 279.992 156.148C276.669 227.868 215.835 283.315 144.115 279.992C104.449 278.154 69.7608 258.725 47.2395 229.592L49.7888 227.984C71.7949 256.319 105.606 275.205 144.253 276.995C214.318 280.242 273.749 226.074 276.995 156.009ZM79.3774 41.0605L80.7097 43.7734C62.7271 55.5322 47.8586 71.7489 37.7373 90.9349L35.0168 89.6608C45.4361 69.858 60.793 53.1383 79.3774 41.0605ZM20.2706 144.115C19.4073 162.749 22.5111 180.648 28.8368 196.994L31.4243 195.362C25.3871 179.542 22.4337 162.248 23.2674 144.254C23.8196 132.335 25.9977 120.876 29.5774 110.081L26.8414 108.8C23.1107 119.947 20.8416 131.791 20.2706 144.115Z" fill="#FDFAD7"/>
</svg>
