<svg width="47" height="46" viewBox="0 0 47 46" fill="none" xmlns="http://www.w3.org/2000/svg">
<path d="M45.0417 5.74999C43.1664 7.04465 41.09 8.03486 38.8925 8.68249C37.7131 7.35522 36.1457 6.41448 34.4021 5.98751C32.6586 5.56054 30.8232 5.66794 29.1441 6.29519C27.465 6.92243 26.0232 8.03926 25.0138 9.49461C24.0044 10.95 23.4759 12.6736 23.5 14.4325V16.3492C20.0585 16.4365 16.6484 15.6895 13.5733 14.1746C10.4982 12.6597 7.85358 10.424 5.87504 7.66665C5.87504 7.66665 -1.95829 24.9167 15.6667 32.5833C11.6336 35.2628 6.82906 36.6063 1.95837 36.4167C19.5834 46 41.125 36.4167 41.125 14.375C41.1232 13.8411 41.0708 13.3085 40.9684 12.7842C42.9671 10.855 44.3775 8.41935 45.0417 5.74999Z" stroke="white" stroke-width="3" stroke-linecap="round" stroke-linejoin="round"/>
</svg>
